<mxfile host="app.diagrams.net" modified="2024-06-28T13:05:07.006Z" agent="Mozilla/5.0 (Windows NT 10.0; Win64; x64) AppleWebKit/537.36 (KHTML, like Gecko) Chrome/126.0.0.0 Safari/537.36" etag="6mcRn9WsPwB8BiA-zsDJ" version="24.6.4" type="github">
  <diagram name="Page-1" id="mN4T1L7suN6hi5NzHBqO">
    <mxGraphModel dx="1151" dy="739" grid="1" gridSize="10" guides="1" tooltips="1" connect="1" arrows="1" fold="1" page="1" pageScale="1" pageWidth="827" pageHeight="1169" math="0" shadow="0">
      <root>
        <mxCell id="0" />
        <mxCell id="1" parent="0" />
        <mxCell id="055hbVdmYjEi2ckXcSZc-1" value="Provider" style="rounded=1;whiteSpace=wrap;html=1;" parent="1" vertex="1">
          <mxGeometry x="230" y="350" width="120" height="60" as="geometry" />
        </mxCell>
        <mxCell id="055hbVdmYjEi2ckXcSZc-3" style="edgeStyle=orthogonalEdgeStyle;rounded=0;orthogonalLoop=1;jettySize=auto;html=1;entryX=0.5;entryY=0;entryDx=0;entryDy=0;" parent="1" source="055hbVdmYjEi2ckXcSZc-2" target="055hbVdmYjEi2ckXcSZc-1" edge="1">
          <mxGeometry relative="1" as="geometry" />
        </mxCell>
        <mxCell id="055hbVdmYjEi2ckXcSZc-2" value="Referrer&lt;br&gt;(GP)" style="rounded=1;whiteSpace=wrap;html=1;" parent="1" vertex="1">
          <mxGeometry x="230" y="140" width="120" height="60" as="geometry" />
        </mxCell>
        <mxCell id="055hbVdmYjEi2ckXcSZc-4" value="&amp;nbsp;Patient Referral" style="shadow=0;dashed=0;html=1;strokeColor=none;fillColor=#4495D1;labelPosition=center;verticalLabelPosition=bottom;verticalAlign=top;align=center;outlineConnect=0;shape=mxgraph.veeam.2d.letter;" parent="1" vertex="1">
          <mxGeometry x="310" y="250" width="46.4" height="34.8" as="geometry" />
        </mxCell>
        <mxCell id="055hbVdmYjEi2ckXcSZc-5" value="Booking" style="rounded=1;whiteSpace=wrap;html=1;" parent="1" vertex="1">
          <mxGeometry x="490" y="350" width="120" height="60" as="geometry" />
        </mxCell>
      </root>
    </mxGraphModel>
  </diagram>
</mxfile>
